<svg xmlns="http://www.w3.org/2000/svg" viewBox="0 0 389.48 77.93"><defs><style>.cls-1{fill:#fff;}.cls-2{fill:#bbdcff;}.cls-3,.cls-5{fill:#6671e5;}.cls-4{isolation:isolate;}.cls-5{font-size:46.21px;font-family:Poppins-Medium, Poppins;letter-spacing:0.05em;}</style></defs><title>testnet</title><g id="Layer_2" data-name="Layer 2"><g id="kUSD"><circle class="cls-1" cx="34.94" cy="34.55" r="33.78"/><path class="cls-2" d="M21.47,19.77l-6.81-6.83a30,30,0,0,0-3.06,3.29l9.93,9.93v-18h0Z"/><path class="cls-2" d="M5,34.81a29.61,29.61,0,0,1,2.1-11,29.66,29.66,0,0,0,.54,23.28l13.79-13.9V61.42h0V26.78L6,42.39A29.77,29.77,0,0,1,5,34.81Z"/><path class="cls-3" d="M34.81,0A34.81,34.81,0,1,0,69.61,34.81,34.81,34.81,0,0,0,34.81,0Zm-8,6.15h0A29.68,29.68,0,0,1,42,5.94h.05l-9.77,9.79-5.54,5.54h0Zm-5.25,20V61.42h0A29.8,29.8,0,0,1,7.15,23.81l.11-.27.35-.82.2-.46.33-.7L8.44,21l.3-.57c.15-.27.3-.53.46-.79l.2-.33c.27-.46.56-.88.86-1.31l.54-.75.35-.46.46-.58a29.84,29.84,0,0,1,9.87-8h0ZM47.21,61.88l-.3.14-.78.34-.72.28-.46.17a29.7,29.7,0,0,1-18.16.67h0v-32L53.37,58.08a29.82,29.82,0,0,1-6.2,3.81Zm9.89-7.33L28.85,26.31l18.5-18.5a29.74,29.74,0,0,1,9.74,46.71Z"/><g class="cls-4"><path class="cls-3" d="M39.28,22.27V27.1a1.9,1.9,0,0,0,.37,1.27,1.56,1.56,0,0,0,2.17,0,1.9,1.9,0,0,0,.37-1.27V22.27h2V27.1a4,4,0,0,1-.46,2,3,3,0,0,1-1.26,1.22,3.91,3.91,0,0,1-1.81.41,3.78,3.78,0,0,1-1.78-.4A2.86,2.86,0,0,1,37.7,29.1a4.19,4.19,0,0,1-.44-2V22.27Z"/><path class="cls-3" d="M51.25,29.51a2.38,2.38,0,0,1-1,.89,3.51,3.51,0,0,1-1.59.33A3.75,3.75,0,0,1,46.34,30a2.49,2.49,0,0,1-1-1.92H47.5a1.14,1.14,0,0,0,.34.75,1,1,0,0,0,.74.27.86.86,0,0,0,.62-.21.75.75,0,0,0,.23-.57.73.73,0,0,0-.21-.53,1.62,1.62,0,0,0-.52-.35q-.31-.14-.85-.33a10.47,10.47,0,0,1-1.3-.53,2.39,2.39,0,0,1-.86-.76,2.47,2.47,0,0,1,0-2.6,2.41,2.41,0,0,1,1-.84,3.82,3.82,0,0,1,1.53-.29,3.44,3.44,0,0,1,2.22.66,2.53,2.53,0,0,1,.93,1.82H49.24a1.13,1.13,0,0,0-.3-.66.89.89,0,0,0-.66-.24.85.85,0,0,0-.57.19.7.7,0,0,0-.22.56.71.71,0,0,0,.2.5,1.48,1.48,0,0,0,.49.34q.3.13.85.33a9.4,9.4,0,0,1,1.32.54,2.52,2.52,0,0,1,.88.78,2.22,2.22,0,0,1,.37,1.33A2.31,2.31,0,0,1,51.25,29.51Z"/><path class="cls-3" d="M59.72,28.62a3.69,3.69,0,0,1-1.52,1.49,4.84,4.84,0,0,1-2.33.53H52.72V22.27h3.16a4.92,4.92,0,0,1,2.33.52,3.64,3.64,0,0,1,1.51,1.47,4.78,4.78,0,0,1,0,4.37Zm-2.18-.42a2.33,2.33,0,0,0,.66-1.77,2.33,2.33,0,0,0-.66-1.77A2.56,2.56,0,0,0,55.7,24h-1v4.79h1A2.56,2.56,0,0,0,57.54,28.2Z"/></g></g><g id="mUSD"><path class="cls-2" d="M246.09,18.86v1.72h-9.2V50.8h-2.08V20.58h-9.15V18.86Z"/><path class="cls-2" d="M252.61,20.58V34h12.91v1.63H252.61V49.08h14.27V50.8H250.57V18.86h16.31v1.72Z"/><path class="cls-2" d="M290.35,46.88a7.37,7.37,0,0,1-3,3.06,10.11,10.11,0,0,1-5.12,1.18A11.79,11.79,0,0,1,277,50a9.59,9.59,0,0,1-3.67-3,8.47,8.47,0,0,1-1.59-4.12h2.13a8.29,8.29,0,0,0,1.15,3,7.42,7.42,0,0,0,2.74,2.58,8.78,8.78,0,0,0,4.44,1,6.88,6.88,0,0,0,5.16-1.86A6.35,6.35,0,0,0,289.17,43,6.09,6.09,0,0,0,288,39.11a7.54,7.54,0,0,0-2.79-2.22,35.24,35.24,0,0,0-4.51-1.63,37.39,37.39,0,0,1-4.85-1.74A7.76,7.76,0,0,1,272.84,31a7.55,7.55,0,0,1-1.25-4.53,7.37,7.37,0,0,1,2.4-5.66,9.44,9.44,0,0,1,6.66-2.22,10.14,10.14,0,0,1,6.82,2.15,8.91,8.91,0,0,1,3.1,5.14H288.4A7.21,7.21,0,0,0,286,22a7.73,7.73,0,0,0-5.35-1.74,7.44,7.44,0,0,0-5,1.61,5.67,5.67,0,0,0-1.88,4.55A5.73,5.73,0,0,0,274.85,30a7.29,7.29,0,0,0,2.7,2.13,32.81,32.81,0,0,0,4.37,1.56,34.71,34.71,0,0,1,4.94,1.79A8.28,8.28,0,0,1,290,38.16a7.9,7.9,0,0,1,1.29,4.76A8.66,8.66,0,0,1,290.35,46.88Z"/><path class="cls-2" d="M315.13,18.86v1.72h-9.2V50.8h-2.08V20.58H294.7V18.86Z"/><path class="cls-2" d="M342.36,50.8h-2L321.66,22.35V50.8h-2V18.9h2l18.66,28.45V18.9h2Z"/><path class="cls-2" d="M351.74,20.58V34h12.91v1.63H351.74V49.08H366V50.8H349.7V18.86H366v1.72Z"/><path class="cls-2" d="M389.48,18.86v1.72h-9.2V50.8H378.2V20.58H369V18.86Z"/><text class="cls-5" transform="translate(93.19 51.04)">kUSD</text></g></g></svg>