<svg xmlns="http://www.w3.org/2000/svg" viewBox="0 0 299.82 50.41"><defs><style>.cls-1{fill:#008ef5;}</style></defs><title>testnet</title><g id="Layer_2" data-name="Layer 2"><g id="Layer_1-2" data-name="Layer 1"><path class="cls-1" d="M25.2,50.41a25.2,25.2,0,1,1,25.2-25.2A25.23,25.23,0,0,1,25.2,50.41Zm0-46.9A21.7,21.7,0,1,0,46.9,25.2,21.72,21.72,0,0,0,25.2,3.51Z"/><rect class="cls-1" x="15.74" y="3.68" width="3.65" height="43.74"/><rect class="cls-1" x="-2.83" y="16.68" width="43.41" height="3.51" transform="translate(-7.5 18.87) rotate(-45.27)"/><rect class="cls-1" x="23.2" y="2.39" width="3.51" height="47.06" transform="translate(-11.02 25.23) rotate(-45)"/><path class="cls-1" d="M72.95,25.65l8,9.6H76.37l-7-8.63v8.63H65.62V16.38h3.77v8.47l7-8.47h4.54Z"/><path class="cls-1" d="M100.42,17.34a8.93,8.93,0,0,1,3.39,3.43,10,10,0,0,1,1.24,5,10,10,0,0,1-1.24,5,8.9,8.9,0,0,1-3.39,3.45,10,10,0,0,1-9.6,0,8.89,8.89,0,0,1-3.39-3.45,10,10,0,0,1-1.24-5,10,10,0,0,1,1.24-5,8.92,8.92,0,0,1,3.39-3.43,10,10,0,0,1,9.6,0Zm-7.71,3a5.11,5.11,0,0,0-2,2.15A7.17,7.17,0,0,0,90,25.76,7.17,7.17,0,0,0,90.74,29a5.11,5.11,0,0,0,2,2.15,6,6,0,0,0,5.83,0,5.12,5.12,0,0,0,2-2.15,7.18,7.18,0,0,0,.71-3.28,7.18,7.18,0,0,0-.71-3.27,5.12,5.12,0,0,0-2-2.15,6,6,0,0,0-5.83,0Z"/><path class="cls-1" d="M136.38,16.38l-4.62,18.87h-4.65l-3.53-13.69L120,35.25H115.4l-4.62-18.87h4.09L117.75,31l3.74-14.62h4.14L129.41,31l2.89-14.62Z"/><path class="cls-1" d="M154.19,31.45h-7.56l-1.34,3.8h-4l7-18.66h4.3l6.92,18.66h-4Zm-1-2.86-2.78-8-2.78,8Z"/><path class="cls-1" d="M169,32.36h6.34v2.89H165.25V16.38H169Z"/><path class="cls-1" d="M192.84,31.45h-7.57l-1.34,3.8h-4l7-18.66h4.3l6.92,18.66h-4Zm-1-2.86-2.78-8-2.78,8Z"/><path class="cls-1" d="M219.76,17.41v1h-5.13V35.25h-1.16V18.38h-5.11v-1Z"/><path class="cls-1" d="M223.4,18.38v7.49h7.21v.91H223.4v7.51h8v1h-9.11V17.41h9.11v1Z"/><path class="cls-1" d="M244.47,33.06a4.12,4.12,0,0,1-1.67,1.71,5.64,5.64,0,0,1-2.86.66,6.58,6.58,0,0,1-2.93-.63,5.36,5.36,0,0,1-2-1.69,4.73,4.73,0,0,1-.89-2.3h1.19a4.63,4.63,0,0,0,.64,1.67,4.15,4.15,0,0,0,1.53,1.44,4.9,4.9,0,0,0,2.48.58,3.84,3.84,0,0,0,2.88-1,3.55,3.55,0,0,0,1-2.58,3.4,3.4,0,0,0-.63-2.15,4.21,4.21,0,0,0-1.56-1.24,19.68,19.68,0,0,0-2.52-.91,20.88,20.88,0,0,1-2.71-1,4.33,4.33,0,0,1-1.71-1.43,4.22,4.22,0,0,1-.7-2.53,4.12,4.12,0,0,1,1.34-3.16,5.27,5.27,0,0,1,3.72-1.24,5.66,5.66,0,0,1,3.81,1.2,5,5,0,0,1,1.73,2.87h-1.21A4,4,0,0,0,242,19.15a4.31,4.31,0,0,0-3-1,4.15,4.15,0,0,0-2.79.9,3.16,3.16,0,0,0-1,2.54,3.2,3.2,0,0,0,.61,2,4.07,4.07,0,0,0,1.51,1.19,18.32,18.32,0,0,0,2.44.87,19.38,19.38,0,0,1,2.76,1,4.62,4.62,0,0,1,1.76,1.48,4.41,4.41,0,0,1,.72,2.66A4.83,4.83,0,0,1,244.47,33.06Z"/><path class="cls-1" d="M258.31,17.41v1h-5.13V35.25H252V18.38H246.9v-1Z"/><path class="cls-1" d="M273.51,35.25h-1.14L262,19.36V35.25h-1.14V17.44H262l10.42,15.89V17.44h1.14Z"/><path class="cls-1" d="M278.75,18.38v7.49H286v.91h-7.21v7.51h8v1h-9.11V17.41h9.11v1Z"/><path class="cls-1" d="M299.82,17.41v1h-5.13V35.25h-1.16V18.38h-5.11v-1Z"/></g></g></svg>